<?xml version="1.0" encoding="UTF-8" standalone="no"?>
<!-- Created with Inkscape (http://www.inkscape.org/) -->

<svg
   xmlns:dc="http://purl.org/dc/elements/1.1/"
   xmlns:cc="http://creativecommons.org/ns#"
   xmlns:rdf="http://www.w3.org/1999/02/22-rdf-syntax-ns#"
   xmlns:svg="http://www.w3.org/2000/svg"
   xmlns="http://www.w3.org/2000/svg"
   xmlns:sodipodi="http://sodipodi.sourceforge.net/DTD/sodipodi-0.dtd"
   xmlns:inkscape="http://www.inkscape.org/namespaces/inkscape"
   width="744.09448819"
   height="1052.3622047"
   id="svg2"
   version="1.1"
   inkscape:version="0.48.3.1 r9886"
   sodipodi:docname="New document 1">
  <defs
     id="defs4" />
  <sodipodi:namedview
     id="base"
     pagecolor="#ffffff"
     bordercolor="#666666"
     borderopacity="1.0"
     inkscape:pageopacity="0.0"
     inkscape:pageshadow="2"
     inkscape:zoom="0.98994949"
     inkscape:cx="411.52165"
     inkscape:cy="430.67385"
     inkscape:document-units="px"
     inkscape:current-layer="layer2"
     showgrid="true"
     inkscape:snap-grids="false"
     inkscape:window-width="1150"
     inkscape:window-height="683"
     inkscape:window-x="0"
     inkscape:window-y="40"
     inkscape:window-maximized="0">
    <inkscape:grid
       type="xygrid"
       id="grid2985" />
  </sodipodi:namedview>
  <metadata
     id="metadata7">
    <rdf:RDF>
      <cc:Work
         rdf:about="">
        <dc:format>image/svg+xml</dc:format>
        <dc:type
           rdf:resource="http://purl.org/dc/dcmitype/StillImage" />
        <dc:title></dc:title>
      </cc:Work>
    </rdf:RDF>
  </metadata>
  <g
     inkscape:label="Layer 1"
     inkscape:groupmode="layer"
     id="layer1"
     style="display:inline">
    <path
       sodipodi:type="arc"
       style="fill:none;stroke:#000000;stroke-width:10;stroke-linecap:butt;stroke-linejoin:miter;stroke-miterlimit:4;stroke-opacity:1;stroke-dasharray:none"
       id="path2987"
       sodipodi:cx="360"
       sodipodi:cy="452.36218"
       sodipodi:rx="200"
       sodipodi:ry="200"
       d="m 560,452.36218 a 200,200 0 1 1 -400,0 200,200 0 1 1 400,0 z"
       transform="translate(0,-200)" />
  </g>
  <g
     inkscape:groupmode="layer"
     id="layer2"
     inkscape:label="Layer"
     style="display:inline">
    <path
       id="path3760"
       style="fill:#000000;fill-opacity:1;stroke:#000000;stroke-width:1;stroke-linecap:butt;stroke-linejoin:miter;stroke-miterlimit:4;stroke-opacity:1;stroke-dasharray:none"
       d="m 438,394.36218 c 0,0 -1.01015,-285.23096 -1.01015,-245.23096 0,40 -68.98985,255.23096 -108.98985,215.23096 -40,-40 -26.46447,-184.17132 -26.46447,-184.17132 L 198,454.36218 c 0,0 -50,0 -60,-30 80,-70 170,-270 170,-270 0,0 -10,120 30,160 40,40 100,-162 100,-202 0,-40 29.09137,250.98985 29.09137,250.98985 z"
       inkscape:connector-curvature="0"
       sodipodi:nodetypes="cssccccsscc" />
    <path
       id="path3760-6"
       style="fill:#000000;fill-opacity:1;stroke:#000000;stroke-width:1;stroke-linecap:butt;stroke-linejoin:miter;stroke-miterlimit:4;stroke-opacity:1;stroke-dasharray:none;display:inline"
       d="m 222.63925,744.3241 c 29.56881,-52.07503 31.87287,-210.93837 25.25377,-171.48983 -10.10153,60.20305 -66.9695,220.88577 -102.92889,184.92638 -40,-40 -22.42389,-134.67384 -22.42389,-134.67384 0,0 -52.030836,95.59597 -25.753776,158.00377 26.277046,62.4078 -51.91878,123.50328 -69.09138,71.01526 -17.17259,-52.48802 110.401026,-277.07107 110.401026,-277.07107 0,0 -24.14213,81.6142 15.85787,121.6142 40.50508,40.50508 92.92893,-144.8274 92.92893,-184.8274 0,-40 30.24669,160.15969 28.08115,223.71573 -2.16555,63.55604 -81.89362,60.86182 -52.32481,8.7868 z"
       inkscape:connector-curvature="0"
       sodipodi:nodetypes="zssczzcsszz" />
    <path
       id="path3760-6-0"
       style="fill:#000000;fill-opacity:1;stroke:#000000;stroke-width:1;stroke-linecap:butt;stroke-linejoin:miter;stroke-miterlimit:4;stroke-opacity:1;stroke-dasharray:none;display:inline"
       d="m 539.19216,733.06136 c -7.57405,-56.36074 -0.0929,-135.95973 -0.0929,-135.95973 0,0 -8.26066,155.16133 -57.86797,155.16133 -49.6073,0 -29.28103,-131.8167 -29.28103,-131.8167 0,0 -50.01052,138.02238 -32.82485,164.06469 17.18568,26.0423 -90.93513,50.93055 -56.94851,8.36477 33.98662,-42.56578 90.0419,-229.30763 105.32923,-220.48149 15.28733,8.82614 -25.43173,127.32848 12.71501,127.32848 38.14675,0 55.55266,-154.91795 66.78608,-143.68454 11.23341,11.23342 -13.25295,133.23075 17.43865,155.35822 30.69159,22.12747 -17.6797,78.02572 -25.25374,21.66497 z"
       inkscape:connector-curvature="0"
       sodipodi:nodetypes="zczczzzzzzz" />
  </g>
</svg>
